<svg width="16" height="16" viewBox="0 0 16 16" fill="none" xmlns="http://www.w3.org/2000/svg">
<path d="M16 8C16 8.74286 15.4643 9.30714 14.9929 9.8C14.7214 10.0786 14.4429 10.3714 14.3357 10.6214C14.2286 10.8714 14.2357 11.2429 14.2286 11.6214C14.2214 12.3143 14.2071 13.1071 13.6571 13.6571C13.1071 14.2071 12.3143 14.2214 11.6214 14.2286C11.2429 14.2357 10.8571 14.2429 10.6214 14.3357C10.3857 14.4286 10.0786 14.7214 9.8 14.9929C9.30714 15.4643 8.74286 16 8 16C7.25714 16 6.69286 15.4643 6.2 14.9929C5.92143 14.7214 5.62857 14.4429 5.37857 14.3357C5.12857 14.2286 4.75714 14.2357 4.37857 14.2286C3.68571 14.2214 2.89286 14.2071 2.34286 13.6571C1.79286 13.1071 1.77857 12.3143 1.77143 11.6214C1.76429 11.2429 1.75714 10.8571 1.66429 10.6214C1.57143 10.3857 1.27857 10.0786 1.00714 9.8C0.535714 9.30714 0 8.74286 0 8C0 7.25714 0.535714 6.69286 1.00714 6.2C1.27857 5.92143 1.55714 5.62857 1.66429 5.37857C1.77143 5.12857 1.76429 4.75714 1.77143 4.37857C1.77857 3.68571 1.79286 2.89286 2.34286 2.34286C2.89286 1.79286 3.68571 1.77857 4.37857 1.77143C4.75714 1.76429 5.14286 1.75714 5.37857 1.66429C5.61429 1.57143 5.92143 1.27857 6.2 1.00714C6.69286 0.535714 7.25714 0 8 0C8.74286 0 9.30714 0.535714 9.8 1.00714C10.0786 1.27857 10.3714 1.55714 10.6214 1.66429C10.8714 1.77143 11.2429 1.76429 11.6214 1.77143C12.3143 1.77857 13.1071 1.79286 13.6571 2.34286C14.2071 2.89286 14.2214 3.68571 14.2286 4.37857C14.2357 4.75714 14.2429 5.14286 14.3357 5.37857C14.4286 5.61429 14.7214 5.92143 14.9929 6.2C15.4643 6.69286 16 7.25714 16 8Z" fill="white"/>
<path d="M10.4127 6.3916L7.19584 9.60847L5.5874 8.00004" stroke="#010101" stroke-linecap="round" stroke-linejoin="round"/>
</svg>
