<svg width="32" height="32" viewBox="0 0 32 32" fill="none" xmlns="http://www.w3.org/2000/svg">
<g filter="url(#filter0_bi_51_18485)">
<rect width="32" height="32" rx="16" fill="white" fill-opacity="0.02"/>
<rect x="0.5" y="0.5" width="31" height="31" rx="15.5" stroke="white" stroke-opacity="0.08"/>
<path fill-rule="evenodd" clip-rule="evenodd" d="M17.092 10.4666H14.5013C14.2495 10.4666 14.0272 10.3022 13.9535 10.0614C13.8798 9.82067 13.6575 9.65625 13.4057 9.65625H13.1376C13.021 9.65625 12.9055 9.67802 12.797 9.72045L11.845 10.0926L10.6815 10.5502C10.5096 10.6179 10.3598 10.7318 10.2487 10.8794L9.62262 11.711C9.57464 11.7747 9.53445 11.8439 9.50293 11.9172L9.05426 12.9601L8.40086 14.6619C8.38171 14.7117 8.36659 14.763 8.35564 14.8153L8.02124 16.412C8.00712 16.4794 8 16.5481 8 16.617V18.2588V19.4555C8 19.7973 8.17461 20.1155 8.46297 20.299L9.75721 21.123C9.82579 21.1666 9.89944 21.2018 9.97653 21.2276L10.9767 21.5627L11.3511 21.7091C11.778 21.876 12.2628 21.7065 12.4929 21.3101C12.7512 20.8649 12.5984 20.2946 12.1521 20.0382L11.72 19.79C11.6822 19.7683 11.6589 19.7281 11.6589 19.6845C11.6589 19.5986 11.7454 19.5398 11.8253 19.5713L13.2903 20.1498C13.3601 20.1774 13.4328 20.197 13.507 20.2083L15.367 20.4916C15.4168 20.4992 15.4672 20.503 15.5176 20.503H16.9055C16.9632 20.503 17.0208 20.498 17.0777 20.4881L18.2892 20.2763C18.3751 20.2613 18.4587 20.2351 18.5378 20.1983L19.9209 19.5567C19.987 19.526 20.0652 19.54 20.1166 19.5916C20.1979 19.6734 20.1782 19.8103 20.0771 19.8657L19.5187 20.1719C19.1906 20.3517 19.0809 20.7702 19.2784 21.0879L19.4342 21.3385C19.672 21.721 20.1494 21.8785 20.5682 21.7127L21.8099 21.221C21.8642 21.1995 21.9165 21.1733 21.9662 21.1427L23.3961 20.2617C23.6597 20.0994 23.8332 19.8241 23.866 19.5163L23.9887 18.3648C23.9962 18.2944 23.9962 18.2233 23.9887 18.1529L23.814 16.5134L23.5179 14.8173C23.5086 14.7637 23.4949 14.711 23.4769 14.6596L22.8837 12.9601L22.3681 11.8947C22.3398 11.8363 22.3059 11.7808 22.2669 11.7289L21.6089 10.855C21.5094 10.7228 21.3787 10.6174 21.2285 10.5482L20.0878 10.0227C20.0089 9.98634 19.9257 9.96043 19.8401 9.9456L18.7244 9.75223C18.3839 9.69323 18.0389 9.82824 17.829 10.1026C17.6534 10.3321 17.3809 10.4666 17.092 10.4666ZM14.9455 16.3884C14.9455 17.2835 14.2236 18.0091 13.3331 18.0091C12.4426 18.0091 11.7207 17.2835 11.7207 16.3884C11.7207 15.4932 12.4426 14.7676 13.3331 14.7676C14.2236 14.7676 14.9455 15.4932 14.9455 16.3884ZM18.6666 18.0091C19.5571 18.0091 20.279 17.2835 20.279 16.3884C20.279 15.4932 19.5571 14.7676 18.6666 14.7676C17.7761 14.7676 17.0542 15.4932 17.0542 16.3884C17.0542 17.2835 17.7761 18.0091 18.6666 18.0091Z" fill="white" fill-opacity="0.4"/>
</g>
<defs>
<filter id="filter0_bi_51_18485" x="-48" y="-48" width="128" height="128" filterUnits="userSpaceOnUse" color-interpolation-filters="sRGB">
<feFlood flood-opacity="0" result="BackgroundImageFix"/>
<feGaussianBlur in="BackgroundImageFix" stdDeviation="24"/>
<feComposite in2="SourceAlpha" operator="in" result="effect1_backgroundBlur_51_18485"/>
<feBlend mode="normal" in="SourceGraphic" in2="effect1_backgroundBlur_51_18485" result="shape"/>
<feColorMatrix in="SourceAlpha" type="matrix" values="0 0 0 0 0 0 0 0 0 0 0 0 0 0 0 0 0 0 127 0" result="hardAlpha"/>
<feOffset/>
<feGaussianBlur stdDeviation="6"/>
<feComposite in2="hardAlpha" operator="arithmetic" k2="-1" k3="1"/>
<feColorMatrix type="matrix" values="0 0 0 0 1 0 0 0 0 1 0 0 0 0 1 0 0 0 0.08 0"/>
<feBlend mode="normal" in2="shape" result="effect2_innerShadow_51_18485"/>
</filter>
</defs>
</svg>
