<svg width="33" height="32" viewBox="0 0 33 32" fill="none" xmlns="http://www.w3.org/2000/svg">
<path d="M13 15.5C13.5523 15.5 14 15.0523 14 14.5C14 13.9477 13.5523 13.5 13 13.5C12.4477 13.5 12 13.9477 12 14.5C12 15.0523 12.4477 15.5 13 15.5Z" fill="#49536E"/>
<path d="M13 15.5C13.5523 15.5 14 15.0523 14 14.5C14 13.9477 13.5523 13.5 13 13.5C12.4477 13.5 12 13.9477 12 14.5C12 15.0523 12.4477 15.5 13 15.5Z" fill="url(#paint0_linear_235_18125)"/>
<path d="M20 15.5C20.5523 15.5 21 15.0523 21 14.5C21 13.9477 20.5523 13.5 20 13.5C19.4477 13.5 19 13.9477 19 14.5C19 15.0523 19.4477 15.5 20 15.5Z" fill="url(#paint1_linear_235_18125)"/>
<path d="M27.5 27L23.8375 24L20.1625 27L16.5 24L12.8375 27L9.1625 24L5.5 27V15C5.5 12.0826 6.65893 9.28473 8.72183 7.22183C10.7847 5.15893 13.5826 4 16.5 4C19.4174 4 22.2153 5.15893 24.2782 7.22183C26.3411 9.28473 27.5 12.0826 27.5 15V27Z" stroke="url(#paint2_linear_235_18125)" stroke-linecap="round" stroke-linejoin="round"/>
<defs>
<linearGradient id="paint0_linear_235_18125" x1="13.0454" y1="13.9681" x2="13.0454" y2="15.0532" gradientUnits="userSpaceOnUse">
<stop stop-color="#E6E8EC"/>
<stop offset="1" stop-color="#C1C5CE"/>
</linearGradient>
<linearGradient id="paint1_linear_235_18125" x1="20.0454" y1="13.9681" x2="20.0454" y2="15.0532" gradientUnits="userSpaceOnUse">
<stop stop-color="#E6E8EC"/>
<stop offset="1" stop-color="#C1C5CE"/>
</linearGradient>
<linearGradient id="paint2_linear_235_18125" x1="16.999" y1="9.38298" x2="16.999" y2="21.8617" gradientUnits="userSpaceOnUse">
<stop stop-color="#E6E8EC"/>
<stop offset="1" stop-color="#C1C5CE"/>
</linearGradient>
</defs>
</svg>
