<svg width="78" height="18" viewBox="0 0 78 18" fill="none" xmlns="http://www.w3.org/2000/svg">
<path d="M70.7603 17.4003C66.7277 17.4003 64.0467 14.4736 64.0579 10.0723V0.912354H67.3644V10.0723C67.3533 12.6974 68.6379 14.2725 70.7603 14.2725C72.8827 14.2725 74.1674 12.6974 74.1785 10.0723V0.912354H77.4851V10.0723C77.4739 14.4736 74.7929 17.4003 70.7603 17.4003Z" fill="white"/>
<path d="M70.7603 17.4003C66.7277 17.4003 64.0467 14.4736 64.0579 10.0723V0.912354H67.3644V10.0723C67.3533 12.6974 68.6379 14.2725 70.7603 14.2725C72.8827 14.2725 74.1674 12.6974 74.1785 10.0723V0.912354H77.4851V10.0723C77.4739 14.4736 74.7929 17.4003 70.7603 17.4003Z" fill="url(#paint0_linear_965_6422)"/>
<path d="M50.2866 17.0875V0.912354H55.8273C59.5136 0.912354 62.0382 3.09064 62.0382 6.25195C62.0382 9.4356 59.5136 11.6139 55.8273 11.6139H53.5931V17.0875H50.2866ZM53.5931 8.59779H55.872C57.6481 8.59779 58.7093 7.71531 58.7093 6.25195C58.7093 4.79976 57.6481 3.92844 55.872 3.92844H53.5931V8.59779Z" fill="white"/>
<path d="M50.2866 17.0875V0.912354H55.8273C59.5136 0.912354 62.0382 3.09064 62.0382 6.25195C62.0382 9.4356 59.5136 11.6139 55.8273 11.6139H53.5931V17.0875H50.2866ZM53.5931 8.59779H55.872C57.6481 8.59779 58.7093 7.71531 58.7093 6.25195C58.7093 4.79976 57.6481 3.92844 55.872 3.92844H53.5931V8.59779Z" fill="url(#paint1_linear_965_6422)"/>
<path d="M40.447 17.4003C35.5989 17.4003 31.9461 13.781 31.9573 8.99998C31.9461 4.21892 35.5878 0.599609 40.4247 0.599609C43.195 0.599609 45.485 1.80604 46.926 3.66038L44.3344 5.60408C43.3179 4.29711 42.0333 3.72741 40.4247 3.72741C37.3974 3.72741 35.275 5.90569 35.2862 8.99998C35.275 12.0943 37.4086 14.2725 40.447 14.2725C42.7594 14.2725 44.3679 13.0103 44.8036 11.0107H40.7598V8.26271H48.0208C48.1213 8.81007 48.1772 9.35744 48.1772 9.89363C48.1772 14.3507 44.9153 17.4003 40.447 17.4003Z" fill="white"/>
<path d="M40.447 17.4003C35.5989 17.4003 31.9461 13.781 31.9573 8.99998C31.9461 4.21892 35.5878 0.599609 40.4247 0.599609C43.195 0.599609 45.485 1.80604 46.926 3.66038L44.3344 5.60408C43.3179 4.29711 42.0333 3.72741 40.4247 3.72741C37.3974 3.72741 35.275 5.90569 35.2862 8.99998C35.275 12.0943 37.4086 14.2725 40.447 14.2725C42.7594 14.2725 44.3679 13.0103 44.8036 11.0107H40.7598V8.26271H48.0208C48.1213 8.81007 48.1772 9.35744 48.1772 9.89363C48.1772 14.3507 44.9153 17.4003 40.447 17.4003Z" fill="url(#paint2_linear_965_6422)"/>
<path d="M18.7 17.0875V0.912354H24.2406C27.9269 0.912354 30.4515 3.09064 30.4515 6.25195C30.4515 9.4356 27.9269 11.6139 24.2406 11.6139H22.0065V17.0875H18.7ZM22.0065 8.59779H24.2853C26.0614 8.59779 27.1227 7.71531 27.1227 6.25195C27.1227 4.79976 26.0614 3.92844 24.2853 3.92844H22.0065V8.59779Z" fill="white"/>
<path d="M18.7 17.0875V0.912354H24.2406C27.9269 0.912354 30.4515 3.09064 30.4515 6.25195C30.4515 9.4356 27.9269 11.6139 24.2406 11.6139H22.0065V17.0875H18.7ZM22.0065 8.59779H24.2853C26.0614 8.59779 27.1227 7.71531 27.1227 6.25195C27.1227 4.79976 26.0614 3.92844 24.2853 3.92844H22.0065V8.59779Z" fill="url(#paint3_linear_965_6422)"/>
<path d="M8.86122 17.4003C4.01313 17.4003 0.360315 13.781 0.371486 8.99998C0.360315 4.21892 4.00196 0.599609 8.83888 0.599609C11.6092 0.599609 13.8992 1.80604 15.3402 3.66038L12.7486 5.60408C11.7321 4.29711 10.4475 3.72741 8.83888 3.72741C5.81162 3.72741 3.68918 5.90569 3.70035 8.99998C3.68918 12.0943 5.82279 14.2725 8.86122 14.2725C11.1736 14.2725 12.7821 13.0103 13.2178 11.0107H9.174V8.26271H16.435C16.5355 8.81007 16.5913 9.35744 16.5913 9.89363C16.5913 14.3507 13.3295 17.4003 8.86122 17.4003Z" fill="white"/>
<path d="M8.86122 17.4003C4.01313 17.4003 0.360315 13.781 0.371486 8.99998C0.360315 4.21892 4.00196 0.599609 8.83888 0.599609C11.6092 0.599609 13.8992 1.80604 15.3402 3.66038L12.7486 5.60408C11.7321 4.29711 10.4475 3.72741 8.83888 3.72741C5.81162 3.72741 3.68918 5.90569 3.70035 8.99998C3.68918 12.0943 5.82279 14.2725 8.86122 14.2725C11.1736 14.2725 12.7821 13.0103 13.2178 11.0107H9.174V8.26271H16.435C16.5355 8.81007 16.5913 9.35744 16.5913 9.89363C16.5913 14.3507 13.3295 17.4003 8.86122 17.4003Z" fill="url(#paint4_linear_965_6422)"/>
<defs>
<linearGradient id="paint0_linear_965_6422" x1="40.9739" y1="0.0966547" x2="40.9739" y2="18.7151" gradientUnits="userSpaceOnUse">
<stop stop-color="#E6E8EC"/>
<stop offset="1" stop-color="#C1C5CE"/>
</linearGradient>
<linearGradient id="paint1_linear_965_6422" x1="40.9737" y1="0.0966548" x2="40.9737" y2="18.7151" gradientUnits="userSpaceOnUse">
<stop stop-color="#E6E8EC"/>
<stop offset="1" stop-color="#C1C5CE"/>
</linearGradient>
<linearGradient id="paint2_linear_965_6422" x1="40.9734" y1="0.0966901" x2="40.9734" y2="18.7152" gradientUnits="userSpaceOnUse">
<stop stop-color="#E6E8EC"/>
<stop offset="1" stop-color="#C1C5CE"/>
</linearGradient>
<linearGradient id="paint3_linear_965_6422" x1="40.9736" y1="0.0966548" x2="40.9736" y2="18.7151" gradientUnits="userSpaceOnUse">
<stop stop-color="#E6E8EC"/>
<stop offset="1" stop-color="#C1C5CE"/>
</linearGradient>
<linearGradient id="paint4_linear_965_6422" x1="40.9738" y1="0.0966901" x2="40.9738" y2="18.7152" gradientUnits="userSpaceOnUse">
<stop stop-color="#E6E8EC"/>
<stop offset="1" stop-color="#C1C5CE"/>
</linearGradient>
</defs>
</svg>
