<svg width="12" height="12" viewBox="0 0 12 12" fill="none" xmlns="http://www.w3.org/2000/svg">
<path d="M4.41113 7.58906L7.58926 4.40625" stroke="#737780" stroke-linecap="round" stroke-linejoin="round"/>
<path d="M6.79697 8.38594L5.47041 9.7125C5.26143 9.92149 5.01332 10.0873 4.74027 10.2004C4.46721 10.3135 4.17456 10.3717 3.87901 10.3717C3.28211 10.3717 2.70967 10.1346 2.2876 9.7125C1.86553 9.29043 1.62842 8.71799 1.62842 8.12109C1.62842 7.5242 1.86553 6.95175 2.2876 6.52969L3.61416 5.20312" stroke="#737780" stroke-linecap="round" stroke-linejoin="round"/>
<path d="M8.38594 6.79691L9.7125 5.47035C10.1346 5.04828 10.3717 4.47584 10.3717 3.87895C10.3717 3.28205 10.1346 2.70961 9.7125 2.28754C9.29043 1.86547 8.71799 1.62836 8.12109 1.62836C7.5242 1.62836 6.95175 1.86547 6.52969 2.28754L5.20312 3.6141" stroke="#737780" stroke-linecap="round" stroke-linejoin="round"/>
</svg>
