<svg width="current" height="current" viewBox="0 0 20 20" fill="none" xmlns="http://www.w3.org/2000/svg">
<path d="M0.299588 9.45462C2.34114 8.37064 4.63118 7.45455 6.75906 6.53846C10.4339 5.04658 14.1087 3.56709 17.8418 2.20141C18.5709 1.96253 19.8682 1.73605 20 2.77833C19.9277 4.24317 19.65 5.70801 19.4459 7.1582C18.9501 10.3696 18.3668 13.5674 17.7975 16.7642C17.6073 17.8346 16.2225 18.3845 15.3336 17.6938C13.2045 16.3134 11.0755 14.9331 8.97561 13.5246C8.29081 12.8485 8.93128 11.8772 9.54491 11.3972C11.2948 9.73519 13.1462 8.31205 14.8098 6.56551C15.2624 5.52322 13.9348 6.39649 13.4974 6.66354C11.1058 8.25571 8.77262 9.9459 6.23526 11.3544C4.952 12.044 3.43541 11.4524 2.15215 11.0727C0.999549 10.622 -0.692024 10.1577 0.299588 9.45349V9.45462Z" fill="#8E8E93"/>
</svg>
