<svg width="32" height="32" viewBox="0 0 32 32" fill="none" xmlns="http://www.w3.org/2000/svg">
<g filter="url(#filter0_bi_51_18481)">
<rect width="32" height="32" rx="16" fill="white" fill-opacity="0.02"/>
<rect x="0.5" y="0.5" width="31" height="31" rx="15.5" stroke="white" stroke-opacity="0.08"/>
<path d="M9.04525 9.43859C9.03951 9.44719 9.50402 10.081 10.0746 10.8438C10.6452 11.6067 11.8581 13.2298 12.7699 14.4487L14.4272 16.6655L14.3211 16.7859C14.2609 16.8519 13.0423 18.1682 11.6144 19.7111C10.1864 21.2569 9.01371 22.5302 9.01084 22.5445C9.0051 22.5588 9.25456 22.5703 9.61297 22.5674L10.2237 22.5646L10.4244 22.3438C10.5362 22.2233 11.5742 21.102 12.7326 19.8488C13.891 18.5955 14.8716 17.5344 14.9118 17.4885L14.9834 17.4054L15.5569 18.174C15.8723 18.5955 16.7411 19.7599 17.4866 20.7579L18.8457 22.5703H20.9245C22.6535 22.5703 23.0004 22.5646 22.989 22.533C22.9804 22.5101 22.4528 21.7989 21.8162 20.9471C21.1797 20.0983 20.4514 19.1232 20.1991 18.7848C19.9439 18.4464 19.1955 17.4398 18.5303 16.5536C17.8651 15.6646 17.3203 14.9247 17.3203 14.9132C17.3203 14.8932 20.8356 11.0761 22.0313 9.79994L22.3725 9.43572H21.7446L21.1195 9.43859L20.3883 10.2301C19.9869 10.666 19.0034 11.7328 18.2006 12.5961L16.7468 14.1676L14.9834 11.8103L13.2172 9.45006L11.1384 9.43572C9.99433 9.42712 9.05098 9.42999 9.04525 9.43859ZM13.9713 11.9795C14.6508 12.8914 15.7003 14.2938 16.3024 15.0997C16.9045 15.9026 18.2407 17.6922 19.2729 19.0716C20.3052 20.4539 21.1596 21.5981 21.174 21.6182C21.1912 21.644 20.9876 21.6526 20.245 21.6526H19.2959L17.4149 19.1347C13.0738 13.3331 10.8832 10.4022 10.8574 10.3592C10.8402 10.3333 11.0352 10.3247 11.7835 10.3247H12.7326L13.9713 11.9795Z" fill="white" fill-opacity="0.4"/>
</g>
<defs>
<filter id="filter0_bi_51_18481" x="-48" y="-48" width="128" height="128" filterUnits="userSpaceOnUse" color-interpolation-filters="sRGB">
<feFlood flood-opacity="0" result="BackgroundImageFix"/>
<feGaussianBlur in="BackgroundImageFix" stdDeviation="24"/>
<feComposite in2="SourceAlpha" operator="in" result="effect1_backgroundBlur_51_18481"/>
<feBlend mode="normal" in="SourceGraphic" in2="effect1_backgroundBlur_51_18481" result="shape"/>
<feColorMatrix in="SourceAlpha" type="matrix" values="0 0 0 0 0 0 0 0 0 0 0 0 0 0 0 0 0 0 127 0" result="hardAlpha"/>
<feOffset/>
<feGaussianBlur stdDeviation="6"/>
<feComposite in2="hardAlpha" operator="arithmetic" k2="-1" k3="1"/>
<feColorMatrix type="matrix" values="0 0 0 0 1 0 0 0 0 1 0 0 0 0 1 0 0 0 0.08 0"/>
<feBlend mode="normal" in2="shape" result="effect2_innerShadow_51_18481"/>
</filter>
</defs>
</svg>
