<svg width="141" height="40" viewBox="0 0 141 40" fill="none" xmlns="http://www.w3.org/2000/svg">
<rect width="141" height="40" fill="#1E1E1E"/>
<g clip-path="url(#clip0_51_16078)">
<rect width="1920" height="3020" transform="translate(-1419 -12)" fill="#010101"/>
<g filter="url(#filter0_b_51_16078)">
<rect width="1920" height="64" transform="translate(-1419 -12)" fill="white" fill-opacity="0.01"/>
<g filter="url(#filter1_bi_51_16078)">
<rect width="141" height="40" rx="20" fill="white" fill-opacity="0.01"/>
<rect x="0.5" y="0.5" width="140" height="39" rx="19.5" stroke="white" stroke-opacity="0.08"/>
<mask id="mask0_51_16078" style="mask-type:alpha" maskUnits="userSpaceOnUse" x="0" y="0" width="141" height="40">
<rect width="141" height="40" fill="url(#paint0_angular_51_16078)"/>
</mask>
<g mask="url(#mask0_51_16078)">
<rect x="0.5" y="0.5" width="140" height="39" rx="19.5" stroke="url(#paint1_linear_51_16078)"/>
</g>
<path d="M23.0824 25L20.2983 14.8182H21.5511L23.679 23.1108H23.7784L25.946 14.8182H27.3381L29.5057 23.1108H29.6051L31.733 14.8182H32.9858L30.2017 25H28.929L26.6818 16.8864H26.6023L24.3551 25H23.0824ZM35.8991 25.179C35.4152 25.179 34.9761 25.0878 34.5817 24.9055C34.1873 24.7199 33.8741 24.4531 33.642 24.1051C33.41 23.7538 33.294 23.3295 33.294 22.8324C33.294 22.3949 33.3802 22.0402 33.5526 21.7685C33.7249 21.4934 33.9553 21.2779 34.2436 21.1222C34.532 20.9664 34.8501 20.8504 35.1982 20.7741C35.5495 20.6946 35.9025 20.6316 36.2571 20.5852C36.7211 20.5256 37.0973 20.4808 37.3857 20.451C37.6773 20.4179 37.8894 20.3632 38.022 20.2869C38.1579 20.2107 38.2259 20.0781 38.2259 19.8892V19.8494C38.2259 19.3589 38.0916 18.9777 37.8232 18.706C37.558 18.4342 37.1553 18.2983 36.6151 18.2983C36.0549 18.2983 35.6158 18.4209 35.2976 18.6662C34.9794 18.9115 34.7557 19.1733 34.6264 19.4517L33.5128 19.054C33.7116 18.59 33.9768 18.2287 34.3082 17.9702C34.643 17.7083 35.0076 17.526 35.402 17.4233C35.7997 17.3172 36.1908 17.2642 36.5753 17.2642C36.8205 17.2642 37.1023 17.294 37.4205 17.3537C37.742 17.41 38.0518 17.5277 38.3501 17.7067C38.6518 17.8857 38.902 18.1558 39.1009 18.517C39.2997 18.8783 39.3991 19.3622 39.3991 19.9688V25H38.2259V23.9659H38.1662C38.0866 24.1316 37.9541 24.3089 37.7685 24.4979C37.5829 24.6868 37.3359 24.8475 37.0277 24.9801C36.7195 25.1127 36.3433 25.179 35.8991 25.179ZM36.0781 24.125C36.5421 24.125 36.9332 24.0339 37.2514 23.8516C37.5729 23.6693 37.8149 23.4339 37.9773 23.1456C38.143 22.8572 38.2259 22.554 38.2259 22.2358V21.1619C38.1761 21.2216 38.0668 21.2763 37.8977 21.326C37.732 21.3724 37.5398 21.4138 37.321 21.4503C37.1056 21.4834 36.8951 21.5133 36.6896 21.5398C36.4875 21.563 36.3234 21.5829 36.1974 21.5994C35.8925 21.6392 35.6075 21.7038 35.3423 21.7933C35.0805 21.8795 34.8684 22.0104 34.706 22.1861C34.5469 22.3584 34.4673 22.5937 34.4673 22.892C34.4673 23.2997 34.6181 23.608 34.9197 23.8168C35.2247 24.0223 35.6108 24.125 36.0781 24.125ZM42.714 14.8182V25H41.5407V14.8182H42.714ZM46.0362 14.8182V25H44.8629V14.8182H46.0362ZM51.3869 25.1591C50.6511 25.1591 50.0164 24.9967 49.4828 24.6719C48.9525 24.3438 48.5431 23.8864 48.2548 23.2997C47.9698 22.7098 47.8272 22.0237 47.8272 21.2415C47.8272 20.4593 47.9698 19.7699 48.2548 19.1733C48.5431 18.5734 48.9442 18.1061 49.4579 17.7713C49.975 17.4332 50.5782 17.2642 51.2676 17.2642C51.6653 17.2642 52.0581 17.3305 52.4458 17.4631C52.8336 17.5956 53.1866 17.8111 53.5048 18.1094C53.823 18.4044 54.0765 18.7955 54.2654 19.2827C54.4544 19.7699 54.5488 20.3698 54.5488 21.0824V21.5795H48.6625V20.5653H53.3556C53.3556 20.1345 53.2695 19.75 53.0971 19.4119C52.9281 19.0739 52.6861 18.8071 52.3713 18.6115C52.0597 18.416 51.6918 18.3182 51.2676 18.3182C50.8002 18.3182 50.3959 18.4342 50.0545 18.6662C49.7164 18.8949 49.4563 19.1932 49.274 19.5611C49.0917 19.929 49.0005 20.3234 49.0005 20.7443V21.4205C49.0005 21.9972 49.1 22.486 49.2988 22.8871C49.501 23.2848 49.7811 23.5881 50.139 23.7969C50.497 24.0024 50.9129 24.1051 51.3869 24.1051C51.6951 24.1051 51.9735 24.062 52.2221 23.9759C52.474 23.8864 52.6911 23.7538 52.8734 23.5781C53.0557 23.3991 53.1966 23.1771 53.296 22.9119L54.4295 23.2301C54.3102 23.6146 54.1097 23.9527 53.8279 24.2443C53.5462 24.5327 53.1982 24.758 52.7839 24.9205C52.3696 25.0795 51.9039 25.1591 51.3869 25.1591ZM59.6547 17.3636V18.358H55.6973V17.3636H59.6547ZM56.8507 15.5341H58.024V22.8125C58.024 23.1439 58.072 23.3925 58.1681 23.5582C58.2676 23.7206 58.3935 23.83 58.546 23.8864C58.7018 23.9394 58.8658 23.9659 59.0382 23.9659C59.1674 23.9659 59.2735 23.9593 59.3564 23.946C59.4392 23.9295 59.5055 23.9162 59.5552 23.9062L59.7939 24.9602C59.7143 24.9901 59.6033 25.0199 59.4608 25.0497C59.3182 25.0829 59.1376 25.0994 58.9189 25.0994C58.5874 25.0994 58.2626 25.0282 57.9444 24.8857C57.6296 24.7431 57.3677 24.526 57.1589 24.2344C56.9534 23.9427 56.8507 23.5748 56.8507 23.1307V15.5341ZM73.7093 18H72.4764C72.4035 17.6454 72.2759 17.3338 72.0936 17.0653C71.9146 16.7969 71.6958 16.5715 71.4373 16.3892C71.1821 16.2036 70.8987 16.0644 70.5872 15.9716C70.2756 15.8788 69.9508 15.8324 69.6127 15.8324C68.9963 15.8324 68.4378 15.9882 67.9373 16.2997C67.4402 16.6113 67.0441 17.0703 66.7491 17.6768C66.4574 18.2834 66.3116 19.0275 66.3116 19.9091C66.3116 20.7907 66.4574 21.5348 66.7491 22.1413C67.0441 22.7479 67.4402 23.2069 67.9373 23.5185C68.4378 23.83 68.9963 23.9858 69.6127 23.9858C69.9508 23.9858 70.2756 23.9394 70.5872 23.8466C70.8987 23.7538 71.1821 23.6162 71.4373 23.4339C71.6958 23.2483 71.9146 23.0213 72.0936 22.7528C72.2759 22.4811 72.4035 22.1695 72.4764 21.8182H73.7093C73.6165 22.3385 73.4475 22.8042 73.2022 23.2152C72.957 23.6262 72.652 23.9759 72.2875 24.2642C71.9229 24.5492 71.5136 24.7663 71.0595 24.9155C70.6087 25.0646 70.1265 25.1392 69.6127 25.1392C68.7444 25.1392 67.9721 24.9271 67.296 24.5028C66.6199 24.0786 66.0879 23.4754 65.7001 22.6932C65.3123 21.911 65.1184 20.983 65.1184 19.9091C65.1184 18.8352 65.3123 17.9072 65.7001 17.125C66.0879 16.3428 66.6199 15.7396 67.296 15.3153C67.9721 14.8911 68.7444 14.679 69.6127 14.679C70.1265 14.679 70.6087 14.7536 71.0595 14.9027C71.5136 15.0518 71.9229 15.2706 72.2875 15.5589C72.652 15.844 72.957 16.192 73.2022 16.603C73.4475 17.0107 73.6165 17.4763 73.7093 18ZM78.6449 25.1591C77.9555 25.1591 77.3506 24.995 76.8303 24.6669C76.3132 24.3388 75.9089 23.8797 75.6172 23.2898C75.3288 22.6998 75.1847 22.0104 75.1847 21.2216C75.1847 20.4261 75.3288 19.7318 75.6172 19.1385C75.9089 18.5452 76.3132 18.0845 76.8303 17.7564C77.3506 17.4283 77.9555 17.2642 78.6449 17.2642C79.3343 17.2642 79.9375 17.4283 80.4545 17.7564C80.9749 18.0845 81.3793 18.5452 81.6676 19.1385C81.9593 19.7318 82.1051 20.4261 82.1051 21.2216C82.1051 22.0104 81.9593 22.6998 81.6676 23.2898C81.3793 23.8797 80.9749 24.3388 80.4545 24.6669C79.9375 24.995 79.3343 25.1591 78.6449 25.1591ZM78.6449 24.1051C79.1686 24.1051 79.5994 23.9709 79.9375 23.7024C80.2756 23.4339 80.5258 23.081 80.6882 22.6435C80.8506 22.206 80.9318 21.732 80.9318 21.2216C80.9318 20.7112 80.8506 20.2356 80.6882 19.7947C80.5258 19.3539 80.2756 18.9976 79.9375 18.7259C79.5994 18.4541 79.1686 18.3182 78.6449 18.3182C78.1212 18.3182 77.6903 18.4541 77.3523 18.7259C77.0142 18.9976 76.764 19.3539 76.6016 19.7947C76.4392 20.2356 76.358 20.7112 76.358 21.2216C76.358 21.732 76.4392 22.206 76.6016 22.6435C76.764 23.081 77.0142 23.4339 77.3523 23.7024C77.6903 23.9709 78.1212 24.1051 78.6449 24.1051ZM85.0694 20.4062V25H83.8961V17.3636H85.0297V18.5568H85.1291C85.3081 18.169 85.5798 17.8575 85.9444 17.6222C86.309 17.3835 86.7797 17.2642 87.3564 17.2642C87.8734 17.2642 88.3258 17.3703 88.7136 17.5824C89.1014 17.7912 89.403 18.1094 89.6184 18.5369C89.8339 18.9612 89.9416 19.4981 89.9416 20.1477V25H88.7683V20.2273C88.7683 19.6274 88.6125 19.16 88.301 18.8253C87.9894 18.4872 87.5618 18.3182 87.0183 18.3182C86.6438 18.3182 86.309 18.3994 86.014 18.5618C85.7224 18.7242 85.492 18.9612 85.323 19.2727C85.1539 19.5843 85.0694 19.9621 85.0694 20.4062ZM93.2589 20.4062V25H92.0856V17.3636H93.2191V18.5568H93.3185C93.4975 18.169 93.7693 17.8575 94.1339 17.6222C94.4985 17.3835 94.9691 17.2642 95.5458 17.2642C96.0629 17.2642 96.5153 17.3703 96.9031 17.5824C97.2908 17.7912 97.5924 18.1094 97.8079 18.5369C98.0233 18.9612 98.131 19.4981 98.131 20.1477V25H96.9577V20.2273C96.9577 19.6274 96.802 19.16 96.4904 18.8253C96.1789 18.4872 95.7513 18.3182 95.2077 18.3182C94.8332 18.3182 94.4985 18.3994 94.2035 18.5618C93.9118 18.7242 93.6815 18.9612 93.5124 19.2727C93.3434 19.5843 93.2589 19.9621 93.2589 20.4062ZM103.477 25.1591C102.741 25.1591 102.106 24.9967 101.573 24.6719C101.042 24.3438 100.633 23.8864 100.345 23.2997C100.06 22.7098 99.9171 22.0237 99.9171 21.2415C99.9171 20.4593 100.06 19.7699 100.345 19.1733C100.633 18.5734 101.034 18.1061 101.548 17.7713C102.065 17.4332 102.668 17.2642 103.357 17.2642C103.755 17.2642 104.148 17.3305 104.536 17.4631C104.923 17.5956 105.276 17.8111 105.595 18.1094C105.913 18.4044 106.166 18.7955 106.355 19.2827C106.544 19.7699 106.639 20.3698 106.639 21.0824V21.5795H100.752V20.5653H105.445C105.445 20.1345 105.359 19.75 105.187 19.4119C105.018 19.0739 104.776 18.8071 104.461 18.6115C104.15 18.416 103.782 18.3182 103.357 18.3182C102.89 18.3182 102.486 18.4342 102.144 18.6662C101.806 18.8949 101.546 19.1932 101.364 19.5611C101.182 19.929 101.09 20.3234 101.09 20.7443V21.4205C101.09 21.9972 101.19 22.486 101.389 22.8871C101.591 23.2848 101.871 23.5881 102.229 23.7969C102.587 24.0024 103.003 24.1051 103.477 24.1051C103.785 24.1051 104.063 24.062 104.312 23.9759C104.564 23.8864 104.781 23.7538 104.963 23.5781C105.146 23.3991 105.286 23.1771 105.386 22.9119L106.519 23.2301C106.4 23.6146 106.2 23.9527 105.918 24.2443C105.636 24.5327 105.288 24.758 104.874 24.9205C104.459 25.0795 103.994 25.1591 103.477 25.1591ZM111.526 25.1591C110.81 25.1591 110.193 24.9901 109.676 24.652C109.159 24.3139 108.762 23.8482 108.483 23.255C108.205 22.6617 108.066 21.9839 108.066 21.2216C108.066 20.446 108.208 19.7616 108.493 19.1683C108.781 18.5717 109.182 18.1061 109.696 17.7713C110.213 17.4332 110.816 17.2642 111.506 17.2642C112.043 17.2642 112.527 17.3636 112.958 17.5625C113.388 17.7614 113.741 18.0398 114.017 18.3977C114.292 18.7557 114.462 19.1733 114.529 19.6506H113.355C113.266 19.3026 113.067 18.9943 112.759 18.7259C112.454 18.4541 112.043 18.3182 111.526 18.3182C111.068 18.3182 110.667 18.4375 110.323 18.6761C109.981 18.9115 109.714 19.2446 109.522 19.6754C109.333 20.103 109.239 20.6051 109.239 21.1818C109.239 21.7718 109.332 22.2855 109.517 22.723C109.706 23.1605 109.971 23.5002 110.313 23.7422C110.657 23.9841 111.062 24.1051 111.526 24.1051C111.831 24.1051 112.107 24.0521 112.356 23.946C112.605 23.84 112.815 23.6875 112.987 23.4886C113.16 23.2898 113.282 23.0511 113.355 22.7727H114.529C114.462 23.2235 114.298 23.6295 114.036 23.9908C113.778 24.3487 113.435 24.6338 113.007 24.8459C112.583 25.0547 112.089 25.1591 111.526 25.1591ZM119.565 17.3636V18.358H115.607V17.3636H119.565ZM116.761 15.5341H117.934V22.8125C117.934 23.1439 117.982 23.3925 118.078 23.5582C118.178 23.7206 118.304 23.83 118.456 23.8864C118.612 23.9394 118.776 23.9659 118.948 23.9659C119.078 23.9659 119.184 23.9593 119.267 23.946C119.349 23.9295 119.416 23.9162 119.465 23.9062L119.704 24.9602C119.624 24.9901 119.513 25.0199 119.371 25.0497C119.228 25.0829 119.048 25.0994 118.829 25.0994C118.498 25.0994 118.173 25.0282 117.855 24.8857C117.54 24.7431 117.278 24.526 117.069 24.2344C116.864 23.9427 116.761 23.5748 116.761 23.1307V15.5341Z" fill="#E5E5E5"/>
</g>
</g>
</g>
<defs>
<filter id="filter0_b_51_16078" x="-1439" y="-32" width="1960" height="104" filterUnits="userSpaceOnUse" color-interpolation-filters="sRGB">
<feFlood flood-opacity="0" result="BackgroundImageFix"/>
<feGaussianBlur in="BackgroundImageFix" stdDeviation="10"/>
<feComposite in2="SourceAlpha" operator="in" result="effect1_backgroundBlur_51_16078"/>
<feBlend mode="normal" in="SourceGraphic" in2="effect1_backgroundBlur_51_16078" result="shape"/>
</filter>
<filter id="filter1_bi_51_16078" x="-48" y="-48" width="237" height="136" filterUnits="userSpaceOnUse" color-interpolation-filters="sRGB">
<feFlood flood-opacity="0" result="BackgroundImageFix"/>
<feGaussianBlur in="BackgroundImageFix" stdDeviation="24"/>
<feComposite in2="SourceAlpha" operator="in" result="effect1_backgroundBlur_51_16078"/>
<feBlend mode="normal" in="SourceGraphic" in2="effect1_backgroundBlur_51_16078" result="shape"/>
<feColorMatrix in="SourceAlpha" type="matrix" values="0 0 0 0 0 0 0 0 0 0 0 0 0 0 0 0 0 0 127 0" result="hardAlpha"/>
<feOffset/>
<feGaussianBlur stdDeviation="6"/>
<feComposite in2="hardAlpha" operator="arithmetic" k2="-1" k3="1"/>
<feColorMatrix type="matrix" values="0 0 0 0 1 0 0 0 0 1 0 0 0 0 1 0 0 0 0.2 0"/>
<feBlend mode="normal" in2="shape" result="effect2_innerShadow_51_16078"/>
</filter>
<radialGradient id="paint0_angular_51_16078" cx="0.7" cy="0.5" r="1" fx="1" fy="0.7" >
<stop offset="0.5" stop-color="#D9D9D9" />
<stop offset="0.6" stop-color="#D9D9D9" stop-opacity="0" />

<!-- <stop offset="0.992519" stop-color="#D9D9D9" stop-opacity="0.5" /> -->
</radialGradient>
<linearGradient id="paint1_linear_51_16078" x1="0" y1="20.5263" x2="141" y2="20.5263" gradientUnits="userSpaceOnUse">
<stop stop-color="#9D9C9D"/>
<stop offset="0.505" stop-color="#E7E7E7"/>
<stop offset="1" stop-color="white"/>
</linearGradient>
<clipPath id="clip0_51_16078">
<rect width="1920" height="3020" fill="white" transform="translate(-1419 -12)"/>
</clipPath>
</defs>
</svg>
